# xmcd
#
# Track frame offsets: 
#        150
#        46314
#        63851
#        81448
#        102219
#        121859
#        154178
#        173940
#        194497
#        208902
#
# Disc length: 2997 seconds
#
# Revision: 0
# Processed by: cddbd v1.5.2PL0 Copyright (c) Steve Scherf et al.
# Submitted via: ExactAudioCopy v1.0b1
#
DISCID=890bb30a
DTITLE=אילן וירצברג - בזמן אמת
DYEAR=2009
DGENRE=hebrew
TTITLE0=זמן אמת
TTITLE1=כוכב שמסתובב
TTITLE2=הזמן לא מרפא את הכאב
TTITLE3=לחשוב על הטוב
TTITLE4=לצאת לחופשי
TTITLE5=סע
TTITLE6=משהו עומד להתרחש
TTITLE7=אבי ואמי יצאו לציד
TTITLE8=כמה אנשים
TTITLE9=עזבת
EXTD=
EXTT0=
EXTT1=
EXTT2=
EXTT3=
EXTT4=
EXTT5=
EXTT6=
EXTT7=
EXTT8=
EXTT9=
PLAYORDER=
